<?xml version="1.0" encoding="UTF-8" standalone="no"?>
<svg
   xmlns:ns0="http://www.iki.fi/pav/software/textext/"
   xmlns:dc="http://purl.org/dc/elements/1.1/"
   xmlns:cc="http://creativecommons.org/ns#"
   xmlns:rdf="http://www.w3.org/1999/02/22-rdf-syntax-ns#"
   xmlns:svg="http://www.w3.org/2000/svg"
   xmlns="http://www.w3.org/2000/svg"
   xmlns:sodipodi="http://sodipodi.sourceforge.net/DTD/sodipodi-0.dtd"
   xmlns:inkscape="http://www.inkscape.org/namespaces/inkscape"
   width="626.39496"
   height="307.12024"
   version="1.1"
   id="svg1120"
   sodipodi:docname="neuron.svg"
   inkscape:version="0.92.2 (5c3e80d, 2017-08-06)">
  <sodipodi:namedview
     pagecolor="#ffffff"
     bordercolor="#666666"
     borderopacity="1"
     objecttolerance="10"
     gridtolerance="10"
     guidetolerance="10"
     inkscape:pageopacity="0"
     inkscape:pageshadow="2"
     inkscape:window-width="1920"
     inkscape:window-height="1001"
     id="namedview1122"
     showgrid="false"
     fit-margin-top="0"
     fit-margin-left="0"
     fit-margin-right="0"
     fit-margin-bottom="0"
     inkscape:zoom="1.1022817"
     inkscape:cx="381.94924"
     inkscape:cy="116.85254"
     inkscape:window-x="-9"
     inkscape:window-y="-9"
     inkscape:window-maximized="1"
     inkscape:current-layer="layer1" />
  <metadata
     id="metadata1124">
    <rdf:RDF>
      <cc:Work
         rdf:about="">
        <dc:format>image/svg+xml</dc:format>
        <dc:type
           rdf:resource="http://purl.org/dc/dcmitype/StillImage" />
        <dc:title></dc:title>
      </cc:Work>
    </rdf:RDF>
  </metadata>
  <defs
     id="defs1118">
    <marker
       refX="66.599998"
       orient="auto"
       markerHeight="7"
       markerWidth="7"
       viewBox="0 -5 10 10"
       id="arrow">
      <path
         inkscape:connector-curvature="0"
         id="path1115"
         style="fill:none;stroke:#505050"
         d="M 0,-5 10,0 0,5" />
    </marker>
  </defs>
  <g
     transform="translate(-27.644501,-67)"
     style="display:inline"
     inkscape:label="NN"
     id="layer1"
     inkscape:groupmode="layer">
    <path
       class="link"
       d="m 101.20966,126.24363 95.4919,57.98846"
       style="opacity:1;stroke:#505050;stroke-width:0.74405831;stroke-opacity:1"
       id="path1083"
       inkscape:connector-curvature="0"
       sodipodi:nodetypes="cc" />
    <circle
       r="39"
       class="node"
       id="0_0"
       cx="67.644501"
       cy="107"
       style="opacity:1;fill:#3e9ade;stroke:#333333;stroke-width:2" />
    <circle
       r="39"
       class="node"
       id="0_1"
       cx="67.644501"
       cy="219"
       style="opacity:1;fill:#3e9ade;stroke:#333333;stroke-width:2" />
    <circle
       r="34.13509"
       class="node"
       id="2_0"
       cx="386.65482"
       cy="216.98965"
       style="opacity:1;fill:#3e9ade;stroke:#333333;stroke-width:1.75051749" />
    <g
       id="content"
       transform="matrix(4.1426838,0,0,-4.1426838,-568.44851,2835.8402)"
       xml:space="preserve"
       stroke-miterlimit="10.433"
       font-style="normal"
       font-variant="normal"
       font-weight="normal"
       font-stretch="normal"
       font-size-adjust="none"
       letter-spacing="normal"
       word-spacing="normal"
       ns0:version="0.10.2"
       ns0:texconverter="xelatex"
       ns0:pdfconverter="pstoedit"
       ns0:text="$x_1$"
       ns0:preamble="C:\\Users\\andres\\AppData\\Roaming\\inkscape\\extensions\\textext\\default_packages.tex"
       ns0:scale="3.56908934227"
       ns0:alignment="middle center"
       ns0:jacobian_sqrt="4.758785"
       style="font-style:normal;font-variant:normal;font-weight:normal;font-stretch:normal;letter-spacing:normal;word-spacing:normal;text-anchor:start;fill:#deffff;fill-opacity:1;fill-rule:evenodd;stroke:#000000;stroke-linecap:butt;stroke-linejoin:miter;stroke-miterlimit:10.43299961;stroke-dasharray:none;stroke-dashoffset:0;stroke-opacity:1"><path
         inkscape:connector-curvature="0"
         d="m 152.04,660.23 0.01,0.03 0.01,0.03 v 0.03 l 0.01,0.04 0.01,0.04 0.02,0.04 0.01,0.04 0.01,0.05 0.02,0.04 0.02,0.05 0.02,0.05 0.02,0.05 0.02,0.05 0.02,0.05 0.03,0.05 0.03,0.05 0.03,0.05 0.03,0.04 0.03,0.05 0.04,0.04 0.03,0.05 0.04,0.04 0.05,0.04 0.04,0.03 0.05,0.03 0.04,0.03 0.03,0.01 0.03,0.02 0.02,0.01 0.03,0.01 0.03,0.01 h 0.03 l 0.02,0.01 0.03,0.01 h 0.03 0.04 l 0.03,0.01 h 0.03 c 0.05,0 0.29,0 0.5,-0.13 -0.28,-0.05 -0.48,-0.3 -0.48,-0.54 0,-0.16 0.11,-0.35 0.38,-0.35 0.22,0 0.54,0.18 0.54,0.58 0,0.52 -0.59,0.66 -0.93,0.66 -0.58,0 -0.93,-0.53 -1.05,-0.76 -0.25,0.66 -0.78,0.76 -1.07,0.76 -1.04,0 -1.61,-1.29 -1.61,-1.53 0,-0.1 0.1,-0.1 0.12,-0.1 0.08,0 0.11,0.02 0.13,0.11 0.34,1.05 1,1.3 1.34,1.3 0.19,0 0.53,-0.09 0.53,-0.67 0,-0.31 -0.17,-0.97 -0.53,-2.36 -0.16,-0.62 -0.51,-1.04 -0.95,-1.04 -0.06,0 -0.29,0 -0.5,0.13 0.25,0.05 0.47,0.26 0.47,0.54 0,0.27 -0.22,0.35 -0.37,0.35 -0.3,0 -0.55,-0.26 -0.55,-0.58 0,-0.46 0.5,-0.65 0.94,-0.65 0.66,0 1.02,0.69 1.05,0.75 0.11,-0.37 0.47,-0.75 1.07,-0.75 1.03,0 1.6,1.28 1.6,1.53 0,0.1 -0.09,0.1 -0.12,0.1 -0.09,0 -0.11,-0.04 -0.13,-0.11 -0.33,-1.07 -1.01,-1.31 -1.33,-1.31 -0.39,0 -0.55,0.32 -0.55,0.66 0,0.22 0.06,0.44 0.17,0.87 z"
         style="fill:#deffff;fill-opacity:1;stroke:#000000;stroke-width:0;stroke-opacity:1"
         id="path929" /><path
         inkscape:connector-curvature="0"
         d="m 156.75,660.16 v 0.01 0.01 0.01 0.01 0 0.01 0.01 0.01 0 0.01 0.01 0 l -0.01,0.01 v 0 0.01 0 0.01 0 0.01 0.01 l -0.01,0.01 v 0 0.01 l -0.01,0.01 v 0 l -0.01,0.01 h -0.01 v 0 l -0.01,0.01 h -0.01 -0.01 -0.01 v 0 h -0.01 v 0 l -0.01,0.01 v 0 h -0.01 -0.01 v 0 h -0.01 -0.01 v 0 h -0.01 -0.01 -0.01 v 0 h -0.01 -0.01 -0.01 c -0.45,-0.44 -1.08,-0.45 -1.37,-0.45 v -0.25 c 0.17,0 0.63,0 1.01,0.2 v -3.55 c 0,-0.23 0,-0.32 -0.7,-0.32 h -0.26 v -0.25 c 0.12,0.01 0.98,0.03 1.24,0.03 0.22,0 1.1,-0.02 1.25,-0.03 v 0.25 h -0.26 c -0.7,0 -0.7,0.09 -0.7,0.32 z"
         style="fill:#deffff;fill-opacity:1;stroke:#000000;stroke-width:0;stroke-opacity:1"
         id="path931" /></g>    <g
       style="font-style:normal;font-variant:normal;font-weight:normal;font-stretch:normal;letter-spacing:normal;word-spacing:normal;text-anchor:start;fill:#deffff;fill-opacity:1;fill-rule:evenodd;stroke:#000000;stroke-linecap:butt;stroke-linejoin:miter;stroke-miterlimit:10.43299961;stroke-dasharray:none;stroke-dashoffset:0;stroke-opacity:1"
       ns0:jacobian_sqrt="4.758785"
       inkscapeversion="0.92.2"
       ns0:alignment="middle center"
       ns0:scale="3.56908934227"
       ns0:preamble="C:\\Users\\andres\\AppData\\Roaming\\inkscape\\extensions\\textext\\default_packages.tex"
       ns0:text="$x_2$"
       ns0:pdfconverter="pstoedit"
       ns0:texconverter="xelatex"
       ns0:version="0.10.2"
       word-spacing="normal"
       letter-spacing="normal"
       font-size-adjust="none"
       font-stretch="normal"
       font-weight="normal"
       font-variant="normal"
       font-style="normal"
       stroke-miterlimit="10.433"
       xml:space="preserve"
       transform="matrix(4.0484424,0,0,-4.0484424,-554.49135,2885.9908)"
       id="g876"><path
         inkscape:connector-curvature="0"
         id="path872"
         style="fill:#deffff;fill-opacity:1;stroke:#000000;stroke-width:0;stroke-opacity:1"
         d="m 152.04,660.23 0.01,0.03 0.01,0.03 v 0.03 l 0.01,0.04 0.01,0.04 0.02,0.04 0.01,0.04 0.01,0.05 0.02,0.04 0.02,0.05 0.02,0.05 0.02,0.05 0.02,0.05 0.02,0.05 0.03,0.05 0.03,0.05 0.03,0.05 0.03,0.04 0.03,0.05 0.04,0.04 0.03,0.05 0.04,0.04 0.05,0.04 0.04,0.03 0.05,0.03 0.04,0.03 0.03,0.01 0.03,0.02 0.02,0.01 0.03,0.01 0.03,0.01 h 0.03 l 0.02,0.01 0.03,0.01 h 0.03 0.04 l 0.03,0.01 h 0.03 c 0.05,0 0.29,0 0.5,-0.13 -0.28,-0.05 -0.48,-0.3 -0.48,-0.54 0,-0.16 0.11,-0.35 0.38,-0.35 0.22,0 0.54,0.18 0.54,0.58 0,0.52 -0.59,0.66 -0.93,0.66 -0.58,0 -0.93,-0.53 -1.05,-0.76 -0.25,0.66 -0.78,0.76 -1.07,0.76 -1.04,0 -1.61,-1.29 -1.61,-1.53 0,-0.1 0.1,-0.1 0.12,-0.1 0.08,0 0.11,0.02 0.13,0.11 0.34,1.05 1,1.3 1.34,1.3 0.19,0 0.53,-0.09 0.53,-0.67 0,-0.31 -0.17,-0.97 -0.53,-2.36 -0.16,-0.62 -0.51,-1.04 -0.95,-1.04 -0.06,0 -0.29,0 -0.5,0.13 0.25,0.05 0.47,0.26 0.47,0.54 0,0.27 -0.22,0.35 -0.37,0.35 -0.3,0 -0.55,-0.26 -0.55,-0.58 0,-0.46 0.5,-0.65 0.94,-0.65 0.66,0 1.02,0.69 1.05,0.75 0.11,-0.37 0.47,-0.75 1.07,-0.75 1.03,0 1.6,1.28 1.6,1.53 0,0.1 -0.09,0.1 -0.12,0.1 -0.09,0 -0.11,-0.04 -0.13,-0.11 -0.33,-1.07 -1.01,-1.31 -1.33,-1.31 -0.39,0 -0.55,0.32 -0.55,0.66 0,0.22 0.06,0.44 0.17,0.87 z" /><path
         inkscape:connector-curvature="0"
         id="path874"
         style="fill:#deffff;fill-opacity:1;stroke:#000000;stroke-width:0;stroke-opacity:1"
         d="m 157.94,657.01 h -0.24 c -0.02,-0.16 -0.09,-0.57 -0.18,-0.64 -0.06,-0.04 -0.6,-0.04 -0.7,-0.04 h -1.28 c 0.73,0.65 0.98,0.84 1.4,1.17 0.52,0.41 1,0.84 1,1.5 0,0.84 -0.74,1.36 -1.64,1.36 -0.87,0 -1.45,-0.61 -1.45,-1.25 0,-0.35 0.3,-0.39 0.37,-0.39 0.16,0 0.37,0.12 0.37,0.37 0,0.13 -0.05,0.37 -0.41,0.37 0.21,0.5 0.69,0.65 1.02,0.65 0.7,0 1.06,-0.54 1.06,-1.11 0,-0.6 -0.44,-1.08 -0.66,-1.33 l -1.68,-1.66 c -0.07,-0.06 -0.07,-0.07 -0.07,-0.27 h 2.88 z" /></g>    <text
       xml:space="preserve"
       style="font-style:normal;font-weight:normal;font-size:40px;line-height:1.25;font-family:sans-serif;letter-spacing:0px;word-spacing:0px;fill:#000000;fill-opacity:1;stroke:none"
       x="350.25558"
       y="28.269388"
       id="text911"><tspan
         sodipodi:role="line"
         id="tspan909"
         x="350.25558"
         y="63.660011" /></text>
    <text
       xml:space="preserve"
       style="font-style:normal;font-weight:normal;font-size:40px;line-height:1.25;font-family:sans-serif;letter-spacing:0px;word-spacing:0px;fill:#000000;fill-opacity:1;stroke:none"
       x="202.71202"
       y="51.363163"
       id="text1570"><tspan
         sodipodi:role="line"
         id="tspan1568"
         x="202.71202"
         y="86.753784" /></text>
    <rect
       y="67.232086"
       x="223.91786"
       height="64.41185"
       width="69.855103"
       id="rect4958"
       style="opacity:1;vector-effect:none;fill:#ff794b;fill-opacity:1;stroke:#333333;stroke-width:1.69299996;stroke-linecap:round;stroke-linejoin:round;stroke-miterlimit:4;stroke-dasharray:none;stroke-dashoffset:0;stroke-opacity:1;paint-order:markers fill stroke"
       transform="translate(-27.216305,117)" />
    <g
       style="font-style:normal;font-variant:normal;font-weight:normal;font-stretch:normal;letter-spacing:normal;word-spacing:normal;text-anchor:start;fill:#deffff;fill-opacity:1;fill-rule:evenodd;stroke:#000000;stroke-linecap:butt;stroke-linejoin:miter;stroke-miterlimit:10.43299961;stroke-dasharray:none;stroke-dashoffset:0;stroke-opacity:1"
       ns0:jacobian_sqrt="2.572954"
       inkscapeversion="0.92.2"
       ns0:alignment="middle center"
       ns0:scale="1.92971609228"
       ns0:preamble="C:\\Users\\andres\\AppData\\Roaming\\inkscape\\extensions\\textext\\default_packages.tex"
       ns0:text="$h$"
       ns0:pdfconverter="pstoedit"
       ns0:texconverter="xelatex"
       ns0:version="0.10.2"
       word-spacing="normal"
       letter-spacing="normal"
       font-size-adjust="none"
       font-stretch="normal"
       font-weight="normal"
       font-variant="normal"
       font-style="normal"
       stroke-miterlimit="10.433"
       xml:space="preserve"
       transform="matrix(4.7761758,0,0,-4.7761758,-337.61212,3371.1698)"
       id="g5007"><path
         id="path5005"
         style="fill:#deffff;fill-opacity:1;stroke:#000000;stroke-width:0;stroke-opacity:1"
         d="m 151.57,664.02 v 0 0 0 0.01 0 0 0 0.01 0 0.01 0 0 0.01 0 l -0.01,0.01 v 0 0.01 h -0.01 v 0.01 0 l -0.01,0.01 v 0 0 h -0.01 v 0.01 0 0 h -0.01 v 0 0.01 h -0.01 v 0 h -0.01 v 0 0 h -0.01 v 0 l -0.01,0.01 v 0 h -0.01 v 0 h -0.01 v 0 h -0.01 -0.01 c -0.23,0 -0.95,-0.08 -1.21,-0.1 -0.08,-0.01 -0.19,-0.02 -0.19,-0.2 0,-0.12 0.09,-0.12 0.24,-0.12 0.48,0 0.5,-0.07 0.5,-0.17 l -0.03,-0.2 -1.45,-5.72 c -0.04,-0.14 -0.04,-0.16 -0.04,-0.22 0,-0.23 0.2,-0.27 0.29,-0.27 0.16,0 0.32,0.11 0.37,0.25 l 0.19,0.76 0.22,0.89 c 0.06,0.22 0.12,0.44 0.17,0.67 0.02,0.06 0.1,0.39 0.11,0.45 0.03,0.08 0.34,0.64 0.68,0.91 0.21,0.16 0.52,0.35 0.95,0.35 0.43,0 0.54,-0.34 0.54,-0.7 0,-0.54 -0.38,-1.62 -0.62,-2.22 -0.08,-0.23 -0.13,-0.35 -0.13,-0.55 0,-0.47 0.35,-0.81 0.82,-0.81 0.94,0 1.31,1.45 1.31,1.53 0,0.1 -0.09,0.1 -0.12,0.1 -0.1,0 -0.1,-0.04 -0.15,-0.18 -0.15,-0.53 -0.47,-1.24 -1.02,-1.24 -0.17,0 -0.24,0.1 -0.24,0.33 0,0.25 0.09,0.49 0.18,0.71 0.16,0.42 0.61,1.61 0.61,2.18 0,0.65 -0.4,1.07 -1.15,1.07 -0.63,0 -1.11,-0.31 -1.47,-0.77 z"
         inkscape:connector-curvature="0" /></g>    <path
       style="fill:none;stroke:#000000;stroke-width:0.62362206;stroke-linecap:butt;stroke-linejoin:miter;stroke-miterlimit:4;stroke-dasharray:none;stroke-opacity:1"
       d="m 105.30069,321.16954 91.40087,-72.5256"
       id="path847"
       inkscape:connector-curvature="0"
       sodipodi:nodetypes="cc" />
    <path
       style="display:inline;fill:none;stroke:#000000;stroke-width:0.62362206;stroke-linecap:butt;stroke-linejoin:miter;stroke-miterlimit:4;stroke-dasharray:none;stroke-opacity:1"
       d="M 420.83294,214.93176 H 506.1106"
       id="path847-0"
       inkscape:connector-curvature="0" />
    <path
       style="display:inline;fill:none;stroke:#000000;stroke-width:0.50236857;stroke-linecap:butt;stroke-linejoin:miter;stroke-miterlimit:4;stroke-dasharray:none;stroke-opacity:1"
       d="m 574.26333,214.15664 h 55.33976"
       id="path847-0-4"
       inkscape:connector-curvature="0" />
    <g
       style="font-style:normal;font-variant:normal;font-weight:normal;font-stretch:normal;letter-spacing:normal;word-spacing:normal;text-anchor:start;fill:none;fill-opacity:1;fill-rule:evenodd;stroke:#000000;stroke-linecap:butt;stroke-linejoin:miter;stroke-miterlimit:10.43299961;stroke-dasharray:none;stroke-dashoffset:0;stroke-opacity:1"
       ns0:jacobian_sqrt="2.852407"
       inkscapeversion="0.92.2"
       ns0:alignment="middle center"
       ns0:scale="2.13930566703"
       ns0:preamble="C:\\Users\\andres\\AppData\\Roaming\\inkscape\\extensions\\textext\\default_packages.tex"
       ns0:text="$y$"
       ns0:pdfconverter="pstoedit"
       ns0:texconverter="xelatex"
       ns0:version="0.10.2"
       word-spacing="normal"
       letter-spacing="normal"
       font-size-adjust="none"
       font-stretch="normal"
       font-weight="normal"
       font-variant="normal"
       font-style="normal"
       stroke-miterlimit="10.433"
       xml:space="preserve"
       transform="matrix(2.852407,0,0,-2.852407,215.90972,2091.317)"
       id="g1042"><path
         id="path1040"
         style="fill:#000000;fill-opacity:1;stroke:#000000;stroke-width:0;stroke-opacity:1"
         d="m 153.56,661.02 v 0.01 0 0.01 h 0.01 v 0.02 0.01 0.01 l 0.01,0.01 v 0.01 0 0.01 l 0.01,0.01 v 0.01 0.01 0 0.01 0 0.01 0.01 0 l 0.01,0.01 v 0 0.01 0.01 0.01 0.01 0.01 0.01 0 0.01 c 0,0.18 -0.14,0.27 -0.29,0.27 -0.1,0 -0.26,-0.06 -0.35,-0.21 -0.02,-0.05 -0.1,-0.36 -0.14,-0.54 -0.07,-0.26 -0.14,-0.53 -0.2,-0.79 l -0.45,-1.79 c -0.04,-0.15 -0.47,-0.85 -1.13,-0.85 -0.5,0 -0.61,0.44 -0.61,0.81 0,0.46 0.17,1.07 0.51,1.95 0.16,0.4 0.19,0.51 0.19,0.71 0,0.45 -0.31,0.82 -0.81,0.82 -0.95,0 -1.32,-1.45 -1.32,-1.53 0,-0.1 0.1,-0.1 0.12,-0.1 0.1,0 0.11,0.02 0.16,0.17 0.27,0.94 0.67,1.24 1.01,1.24 0.08,0 0.25,0 0.25,-0.32 0,-0.25 -0.1,-0.51 -0.17,-0.7 -0.4,-1.05 -0.58,-1.61 -0.58,-2.08 0,-0.89 0.63,-1.18 1.22,-1.18 0.39,0 0.72,0.16 1,0.44 -0.13,-0.51 -0.25,-1 -0.64,-1.53 -0.27,-0.33 -0.64,-0.62 -1.1,-0.62 -0.14,0 -0.59,0.03 -0.76,0.41 0.16,0 0.29,0 0.43,0.12 0.1,0.09 0.2,0.22 0.2,0.41 0,0.31 -0.27,0.35 -0.37,0.35 -0.23,0 -0.56,-0.16 -0.56,-0.65 0,-0.49 0.44,-0.86 1.06,-0.86 1.02,0 2.05,0.9 2.33,2.02 z"
         inkscape:connector-curvature="0" /></g>    <rect
       y="180.94557"
       x="507.17288"
       height="64.41185"
       width="69.855103"
       id="rect4958-9"
       style="display:inline;opacity:1;vector-effect:none;fill:#ff794b;fill-opacity:1;stroke:#333333;stroke-width:1.69299996;stroke-linecap:round;stroke-linejoin:round;stroke-miterlimit:4;stroke-dasharray:none;stroke-dashoffset:0;stroke-opacity:1;paint-order:markers fill stroke" />
    <circle
       r="39"
       class="node"
       id="0_1-5"
       cx="68.147064"
       cy="334.12024"
       style="display:inline;opacity:1;fill:#3e9ade;stroke:#333333;stroke-width:2" />
    <path
       style="display:inline;fill:none;stroke:#000000;stroke-width:0.5359655;stroke-linecap:butt;stroke-linejoin:miter;stroke-miterlimit:4;stroke-dasharray:none;stroke-opacity:1"
       d="m 107.80219,218.18126 h 88.4529"
       id="path847-0-0"
       inkscape:connector-curvature="0"
       sodipodi:nodetypes="cc" />
    <path
       style="display:inline;fill:none;stroke:#000000;stroke-width:0.62362206;stroke-linecap:butt;stroke-linejoin:miter;stroke-miterlimit:4;stroke-dasharray:none;stroke-opacity:1"
       d="m 266.92907,216.86855 h 85.27766"
       id="path847-0-6"
       inkscape:connector-curvature="0" />
    <g
       id="g1275"
       transform="matrix(4.048442,0,0,-4.048442,-543.35875,3012.6022)"
       xml:space="preserve"
       stroke-miterlimit="10.433"
       font-style="normal"
       font-variant="normal"
       font-weight="normal"
       font-stretch="normal"
       font-size-adjust="none"
       letter-spacing="normal"
       word-spacing="normal"
       ns0:version="0.10.2"
       ns0:texconverter="xelatex"
       ns0:pdfconverter="pstoedit"
       ns0:text="$1$"
       ns0:preamble="C:\\Users\\andres\\AppData\\Roaming\\inkscape\\extensions\\textext\\default_packages.tex"
       ns0:scale="3.03633230386"
       ns0:alignment="middle center"
       inkscapeversion="0.92.2"
       ns0:jacobian_sqrt="4.048442"
       style="font-style:normal;font-variant:normal;font-weight:normal;font-stretch:normal;letter-spacing:normal;word-spacing:normal;text-anchor:start;fill:#deffff;fill-opacity:1;fill-rule:evenodd;stroke:#000000;stroke-linecap:butt;stroke-linejoin:miter;stroke-miterlimit:10.43299961;stroke-dasharray:none;stroke-dashoffset:0;stroke-opacity:1"><path
         d="m 151.64,663.59 v 0.01 0.01 0.02 0.01 0 0.01 0.01 0.01 0.01 0.01 0.01 0.01 0 0.01 0.01 0 0.01 0.01 0.01 l -0.01,0.01 v 0.01 0.01 l -0.01,0.01 v 0 0.01 l -0.01,0.01 h -0.01 v 0.01 h -0.01 l -0.01,0.01 h -0.01 v 0 h -0.01 v 0 h -0.01 v 0 l -0.01,0.01 h -0.01 v 0 h -0.01 -0.01 v 0 h -0.01 -0.01 -0.01 -0.01 -0.01 -0.01 -0.01 -0.01 -0.01 -0.01 c -0.61,-0.63 -1.49,-0.63 -1.81,-0.63 v -0.31 c 0.2,0 0.79,0 1.31,0.25 v -5.14 c 0,-0.36 -0.03,-0.48 -0.93,-0.48 h -0.32 v -0.31 c 0.35,0.04 1.22,0.04 1.61,0.04 0.4,0 1.27,0 1.62,-0.04 v 0.31 h -0.32 c -0.9,0 -0.93,0.11 -0.93,0.48 z"
         style="fill:#deffff;fill-opacity:1;stroke:#000000;stroke-width:0;stroke-opacity:1"
         id="path1273"
         inkscape:connector-curvature="0" /></g>    <g
       style="font-style:normal;font-variant:normal;font-weight:normal;font-stretch:normal;letter-spacing:normal;word-spacing:normal;text-anchor:start;fill:#000000;fill-opacity:1;fill-rule:evenodd;stroke:#000000;stroke-linecap:butt;stroke-linejoin:miter;stroke-miterlimit:10.43299961;stroke-dasharray:none;stroke-dashoffset:0;stroke-opacity:1"
       ns0:jacobian_sqrt="4.142684"
       inkscapeversion="0.92.2"
       ns0:alignment="middle center"
       ns0:scale="3.10701336559"
       ns0:preamble="C:\\Users\\andres\\AppData\\Roaming\\inkscape\\extensions\\textext\\default_packages.tex"
       ns0:text="$w_1$"
       ns0:pdfconverter="pstoedit"
       ns0:texconverter="xelatex"
       ns0:version="0.10.2"
       word-spacing="normal"
       letter-spacing="normal"
       font-size-adjust="none"
       font-stretch="normal"
       font-weight="normal"
       font-variant="normal"
       font-style="normal"
       stroke-miterlimit="10.433"
       xml:space="preserve"
       transform="matrix(4.142684,0,0,-4.142684,-488.45038,2863.5821)"
       id="g1386"><path
         id="path1382"
         style="fill:#000000;fill-opacity:1;stroke:#000000;stroke-width:0;stroke-opacity:1"
         d="m 153.32,660.6 v 0.02 l 0.01,0.03 v 0.02 l 0.01,0.02 0.01,0.02 v 0.03 l 0.01,0.05 0.02,0.05 0.01,0.05 0.01,0.05 0.01,0.05 0.01,0.02 v 0.02 l 0.01,0.02 v 0.03 l 0.01,0.02 v 0.02 l 0.01,0.02 v 0.01 l 0.01,0.02 v 0.02 0.01 0.01 l 0.01,0.01 v 0.01 0.01 0.01 c 0,0.18 -0.14,0.27 -0.29,0.27 -0.12,0 -0.3,-0.08 -0.37,-0.28 -0.03,-0.07 -0.5,-1.97 -0.57,-2.23 -0.07,-0.29 -0.09,-0.47 -0.09,-0.65 0,-0.11 0,-0.13 0.01,-0.18 -0.23,-0.53 -0.53,-0.84 -0.92,-0.84 -0.79,0 -0.79,0.74 -0.79,0.91 0,0.32 0.05,0.7 0.52,1.92 0.1,0.3 0.16,0.44 0.16,0.64 0,0.45 -0.32,0.82 -0.81,0.82 -0.95,0 -1.32,-1.45 -1.32,-1.53 0,-0.1 0.1,-0.1 0.12,-0.1 0.1,0 0.11,0.02 0.16,0.17 0.27,0.93 0.66,1.24 1.01,1.24 0.09,0 0.25,-0.01 0.25,-0.33 0,-0.25 -0.11,-0.53 -0.18,-0.7 -0.44,-1.17 -0.56,-1.62 -0.56,-2 0,-0.91 0.67,-1.25 1.41,-1.25 0.17,0 0.64,0 1.04,0.69 0.26,-0.64 0.95,-0.69 1.25,-0.69 0.75,0 1.18,0.62 1.45,1.22 0.33,0.77 0.65,2.1 0.65,2.58 0,0.55 -0.27,0.7 -0.44,0.7 -0.25,0 -0.5,-0.26 -0.5,-0.48 0,-0.13 0.07,-0.19 0.16,-0.27 0.11,-0.11 0.35,-0.37 0.35,-0.84 0,-0.34 -0.29,-1.32 -0.54,-1.82 -0.26,-0.53 -0.61,-0.88 -1.1,-0.88 -0.47,0 -0.74,0.3 -0.74,0.87 0,0.28 0.07,0.58 0.11,0.72 z"
         inkscape:connector-curvature="0" /><path
         id="path1384"
         style="fill:#000000;fill-opacity:1;stroke:#000000;stroke-width:0;stroke-opacity:1"
         d="m 158.19,660.16 v 0.01 0.01 0.01 0.01 0 0.01 0.01 0.01 0 0.01 l -0.01,0.01 v 0 0.01 0 0.01 0 0.01 0 0.01 0.01 l -0.01,0.01 v 0 l -0.01,0.01 v 0.01 0 l -0.01,0.01 h -0.01 v 0 l -0.01,0.01 h -0.01 -0.01 -0.01 v 0 h -0.01 v 0 l -0.01,0.01 v 0 h -0.01 -0.01 v 0 h -0.01 -0.01 v 0 h -0.01 -0.01 -0.01 -0.01 v 0 h -0.01 -0.01 c -0.45,-0.44 -1.09,-0.45 -1.37,-0.45 v -0.25 c 0.16,0 0.63,0 1.01,0.2 v -3.55 c 0,-0.23 0,-0.32 -0.7,-0.32 h -0.26 v -0.25 c 0.12,0.01 0.98,0.03 1.24,0.03 0.22,0 1.1,-0.02 1.25,-0.03 v 0.25 h -0.26 c -0.7,0 -0.7,0.09 -0.7,0.32 z"
         inkscape:connector-curvature="0" /></g>    <g
       id="g1503"
       transform="matrix(4.142684,0,0,-4.142684,-488.37005,2931.7677)"
       xml:space="preserve"
       stroke-miterlimit="10.433"
       font-style="normal"
       font-variant="normal"
       font-weight="normal"
       font-stretch="normal"
       font-size-adjust="none"
       letter-spacing="normal"
       word-spacing="normal"
       ns0:version="0.10.2"
       ns0:texconverter="xelatex"
       ns0:pdfconverter="pstoedit"
       ns0:text="$w_2$"
       ns0:preamble="C:\\Users\\andres\\AppData\\Roaming\\inkscape\\extensions\\textext\\default_packages.tex"
       ns0:scale="3.10701336559"
       ns0:alignment="middle center"
       inkscapeversion="0.92.2"
       ns0:jacobian_sqrt="4.142684"
       style="font-style:normal;font-variant:normal;font-weight:normal;font-stretch:normal;letter-spacing:normal;word-spacing:normal;text-anchor:start;fill:#000000;fill-opacity:1;fill-rule:evenodd;stroke:#000000;stroke-linecap:butt;stroke-linejoin:miter;stroke-miterlimit:10.43299961;stroke-dasharray:none;stroke-dashoffset:0;stroke-opacity:1"><path
         d="m 153.32,660.6 v 0.02 l 0.01,0.03 v 0.02 l 0.01,0.02 0.01,0.02 v 0.03 l 0.01,0.05 0.02,0.05 0.01,0.05 0.01,0.05 0.01,0.05 0.01,0.02 v 0.02 l 0.01,0.02 v 0.03 l 0.01,0.02 v 0.02 l 0.01,0.02 v 0.01 l 0.01,0.02 v 0.02 0.01 0.01 l 0.01,0.01 v 0.01 0.01 0.01 c 0,0.18 -0.14,0.27 -0.29,0.27 -0.12,0 -0.3,-0.08 -0.37,-0.28 -0.03,-0.07 -0.5,-1.97 -0.57,-2.23 -0.07,-0.29 -0.09,-0.47 -0.09,-0.65 0,-0.11 0,-0.13 0.01,-0.18 -0.23,-0.53 -0.53,-0.84 -0.92,-0.84 -0.79,0 -0.79,0.74 -0.79,0.91 0,0.32 0.05,0.7 0.52,1.92 0.1,0.3 0.16,0.44 0.16,0.64 0,0.45 -0.32,0.82 -0.81,0.82 -0.95,0 -1.32,-1.45 -1.32,-1.53 0,-0.1 0.1,-0.1 0.12,-0.1 0.1,0 0.11,0.02 0.16,0.17 0.27,0.93 0.66,1.24 1.01,1.24 0.09,0 0.25,-0.01 0.25,-0.33 0,-0.25 -0.11,-0.53 -0.18,-0.7 -0.44,-1.17 -0.56,-1.62 -0.56,-2 0,-0.91 0.67,-1.25 1.41,-1.25 0.17,0 0.64,0 1.04,0.69 0.26,-0.64 0.95,-0.69 1.25,-0.69 0.75,0 1.18,0.62 1.45,1.22 0.33,0.77 0.65,2.1 0.65,2.58 0,0.55 -0.27,0.7 -0.44,0.7 -0.25,0 -0.5,-0.26 -0.5,-0.48 0,-0.13 0.07,-0.19 0.16,-0.27 0.11,-0.11 0.35,-0.37 0.35,-0.84 0,-0.34 -0.29,-1.32 -0.54,-1.82 -0.26,-0.53 -0.61,-0.88 -1.1,-0.88 -0.47,0 -0.74,0.3 -0.74,0.87 0,0.28 0.07,0.58 0.11,0.72 z"
         style="fill:#000000;fill-opacity:1;stroke:#000000;stroke-width:0;stroke-opacity:1"
         id="path1499"
         inkscape:connector-curvature="0" /><path
         d="m 159.38,657.01 h -0.24 c -0.02,-0.16 -0.09,-0.57 -0.18,-0.64 -0.06,-0.04 -0.6,-0.04 -0.7,-0.04 h -1.28 c 0.73,0.65 0.98,0.84 1.4,1.17 0.51,0.41 1,0.84 1,1.5 0,0.84 -0.75,1.36 -1.64,1.36 -0.87,0 -1.45,-0.61 -1.45,-1.25 0,-0.35 0.3,-0.39 0.37,-0.39 0.16,0 0.37,0.12 0.37,0.37 0,0.13 -0.05,0.37 -0.42,0.37 0.22,0.5 0.7,0.65 1.02,0.65 0.7,0 1.07,-0.54 1.07,-1.11 0,-0.6 -0.44,-1.08 -0.66,-1.33 l -1.69,-1.66 c -0.06,-0.06 -0.06,-0.07 -0.06,-0.27 h 2.88 z"
         style="fill:#000000;fill-opacity:1;stroke:#000000;stroke-width:0;stroke-opacity:1"
         id="path1501"
         inkscape:connector-curvature="0" /></g>    <g
       style="font-style:normal;font-variant:normal;font-weight:normal;font-stretch:normal;letter-spacing:normal;word-spacing:normal;text-anchor:start;fill:#000000;fill-opacity:1;fill-rule:evenodd;stroke:#000000;stroke-linecap:butt;stroke-linejoin:miter;stroke-miterlimit:10.43299961;stroke-dasharray:none;stroke-dashoffset:0;stroke-opacity:1"
       ns0:jacobian_sqrt="4.142684"
       inkscapeversion="0.92.2"
       ns0:alignment="middle center"
       ns0:scale="3.10701336559"
       ns0:preamble="C:\\Users\\andres\\AppData\\Roaming\\inkscape\\extensions\\textext\\default_packages.tex"
       ns0:text="$b$"
       ns0:pdfconverter="pstoedit"
       ns0:texconverter="xelatex"
       ns0:version="0.10.2"
       word-spacing="normal"
       letter-spacing="normal"
       font-size-adjust="none"
       font-stretch="normal"
       font-weight="normal"
       font-variant="normal"
       font-style="normal"
       stroke-miterlimit="10.433"
       xml:space="preserve"
       transform="matrix(4.142684,0,0,-4.142684,-476.4747,3000.7731)"
       id="g1624"><path
         id="path1622"
         style="fill:#000000;fill-opacity:1;stroke:#000000;stroke-width:0;stroke-opacity:1"
         d="m 151.1,664.02 v 0 h -0.01 v 0 0.01 0 0 0 0.01 0 0.01 0 0 0.01 0 l -0.01,0.01 v 0 0.01 0 l -0.01,0.01 v 0 l -0.01,0.01 v 0 0 0 l -0.01,0.01 v 0 0 h -0.01 v 0 0.01 h -0.01 v 0 0 h -0.01 v 0 h -0.01 v 0 l -0.01,0.01 v 0 h -0.01 v 0 h -0.01 v 0 h -0.01 v 0 c -0.23,0 -0.96,-0.08 -1.22,-0.1 -0.08,-0.01 -0.19,-0.02 -0.19,-0.2 0,-0.12 0.09,-0.12 0.24,-0.12 0.48,0 0.5,-0.07 0.5,-0.17 0,-0.07 -0.09,-0.4 -0.14,-0.61 l -0.82,-3.24 c -0.12,-0.5 -0.16,-0.66 -0.16,-1.01 0,-0.94 0.53,-1.55 1.27,-1.55 v 0.21 c -0.34,0 -0.67,0.27 -0.67,1.01 0,0.19 0,0.37 0.16,1 l 0.22,0.92 c 0.06,0.21 0.06,0.23 0.15,0.34 0.49,0.65 0.93,0.8 1.19,0.8 0.36,0 0.63,-0.3 0.63,-0.94 0,-0.58 -0.33,-1.73 -0.51,-2.1 -0.33,-0.67 -0.78,-1.03 -1.17,-1.03 v -0.21 c 1.17,0 2.4,1.48 2.4,2.91 0,0.9 -0.53,1.59 -1.33,1.59 -0.45,0 -0.86,-0.29 -1.16,-0.6 z"
         inkscape:connector-curvature="0" /></g>  </g>
  <g
     inkscape:label="sum"
     id="layer2"
     inkscape:groupmode="layer"
     transform="translate(-54.860806,50)">
    <g
       id="g1305-8-6-6"
       transform="matrix(4.2157877,0,0,-4.2157877,-389.86599,2881.6138)"
       xml:space="preserve"
       stroke-miterlimit="10.433"
       font-style="normal"
       font-variant="normal"
       font-weight="normal"
       font-stretch="normal"
       font-size-adjust="none"
       letter-spacing="normal"
       word-spacing="normal"
       ns0:version="0.10.2"
       ns0:texconverter="xelatex"
       ns0:pdfconverter="pstoedit"
       ns0:text="$\\sum$"
       ns0:preamble="C:\\Users\\andres\\AppData\\Roaming\\inkscape\\extensions\\textext\\default_packages.tex"
       ns0:scale="5.17960203452"
       ns0:alignment="middle center"
       inkscapeversion="0.92.2"
       ns0:jacobian_sqrt="6.906135"
       style="font-style:normal;font-variant:normal;font-weight:normal;font-stretch:normal;letter-spacing:normal;word-spacing:normal;text-anchor:start;display:inline;fill:#deffff;fill-opacity:1;fill-rule:evenodd;stroke:#ffffff;stroke-linecap:butt;stroke-linejoin:miter;stroke-miterlimit:10.43299961;stroke-dasharray:none;stroke-dashoffset:0;stroke-opacity:1"><path
         inkscape:connector-curvature="0"
         d="m 152.91,659.4 -3.54,-4.36 c -0.08,-0.1 -0.09,-0.12 -0.09,-0.16 0,-0.11 0.09,-0.11 0.27,-0.11 h 8.27 l 0.85,2.48 h -0.24 c -0.25,-0.75 -0.92,-1.35 -1.77,-1.64 -0.16,-0.05 -0.85,-0.29 -2.31,-0.29 h -4.24 l 3.46,4.26 c 0.07,0.09 0.09,0.12 0.09,0.16 0,0.04 -0.01,0.05 -0.07,0.14 l -3.24,4.43 h 3.95 c 1.13,0 3.43,-0.07 4.13,-1.93 h 0.24 l -0.85,2.33 h -8.27 c -0.27,0 -0.28,-0.01 -0.28,-0.32 z"
         style="fill:#deffff;fill-opacity:1;stroke:#ffffff;stroke-width:0;stroke-opacity:1"
         id="path1303-5-9-8" /></g>    <g
       id="g921"
       transform="matrix(2.8524068,0,0,-2.8524068,116.67131,1979.6025)"
       xml:space="preserve"
       stroke-miterlimit="10.433"
       font-style="normal"
       font-variant="normal"
       font-weight="normal"
       font-stretch="normal"
       font-size-adjust="none"
       letter-spacing="normal"
       word-spacing="normal"
       ns0:version="0.10.2"
       ns0:texconverter="xelatex"
       ns0:pdfconverter="pstoedit"
       ns0:text="$f(h)$"
       ns0:preamble="C:\\Users\\andres\\AppData\\Roaming\\inkscape\\extensions\\textext\\default_packages.tex"
       ns0:scale="3.58213294945"
       ns0:alignment="middle center"
       inkscapeversion="0.92.2"
       ns0:jacobian_sqrt="4.776176"
       style="font-style:normal;font-variant:normal;font-weight:normal;font-stretch:normal;letter-spacing:normal;word-spacing:normal;text-anchor:start;display:inline;fill:#deffff;fill-opacity:1;fill-rule:evenodd;stroke:#ffffff;stroke-linecap:butt;stroke-linejoin:miter;stroke-miterlimit:10.43299961;stroke-dasharray:none;stroke-dashoffset:0;stroke-opacity:1"><path
         inkscape:connector-curvature="0"
         d="m 152.37,661.21 h 0.86 c 0.2,0 0.3,0 0.3,0.2 0,0.11 -0.1,0.11 -0.27,0.11 h -0.83 l 0.21,1.13 c 0.04,0.21 0.18,0.91 0.24,1.03 0.09,0.19 0.26,0.34 0.47,0.34 0.04,0 0.3,0 0.49,-0.18 -0.44,-0.04 -0.54,-0.39 -0.54,-0.54 0,-0.22 0.18,-0.34 0.37,-0.34 0.26,0 0.55,0.21 0.55,0.59 0,0.46 -0.46,0.69 -0.87,0.69 -0.34,0 -0.97,-0.18 -1.27,-1.16 -0.06,-0.21 -0.09,-0.31 -0.33,-1.56 h -0.68 c -0.19,0 -0.3,0 -0.3,-0.19 0,-0.12 0.09,-0.12 0.27,-0.12 h 0.66 l -0.74,-3.93 c -0.18,-0.96 -0.35,-1.86 -0.87,-1.86 -0.04,0 -0.29,0 -0.48,0.18 0.46,0.03 0.55,0.38 0.55,0.53 0,0.23 -0.18,0.35 -0.37,0.35 -0.26,0 -0.55,-0.22 -0.55,-0.6 0,-0.44 0.44,-0.68 0.85,-0.68 0.55,0 0.95,0.58 1.12,0.96 0.32,0.63 0.55,1.83 0.56,1.9 z"
         style="fill:#deffff;fill-opacity:1;stroke:#ffffff;stroke-width:0;stroke-opacity:1"
         id="path913" /><path
         inkscape:connector-curvature="0"
         d="m 157.96,654.85 v 0.01 0 0 0.01 0 0 0.01 0 0 l -0.01,0.01 v 0 0.01 0 l -0.01,0.01 v 0 l -0.01,0.01 v 0.01 h -0.01 v 0.01 h -0.01 v 0.01 0 h -0.01 v 0.01 0 l -0.01,0.01 v 0 l -0.01,0.01 v 0 l -0.01,0.01 v 0 l -0.01,0.01 v 0.01 h -0.01 l -0.01,0.01 v 0.01 h -0.01 l -0.01,0.01 v 0.01 h -0.01 l -0.01,0.01 -0.01,0.01 c -1.24,1.25 -1.56,3.13 -1.56,4.65 0,1.73 0.38,3.45 1.6,4.7 0.13,0.12 0.13,0.14 0.13,0.17 0,0.07 -0.04,0.09 -0.1,0.09 -0.1,0 -0.99,-0.67 -1.58,-1.93 -0.51,-1.09 -0.63,-2.2 -0.63,-3.03 0,-0.78 0.11,-1.98 0.66,-3.1 0.6,-1.22 1.45,-1.87 1.55,-1.87 0.06,0 0.1,0.03 0.1,0.1 z"
         style="fill:#deffff;fill-opacity:1;stroke:#ffffff;stroke-width:0;stroke-opacity:1"
         id="path915" /><path
         inkscape:connector-curvature="0"
         d="m 161.4,664.02 v 0 0 0 0.01 0 0 0 0.01 0 0.01 0 h -0.01 v 0.01 0 0.01 0 l -0.01,0.01 v 0 0.01 h -0.01 v 0.01 h -0.01 v 0 0 0.01 h -0.01 v 0 0 h -0.01 v 0.01 0 h -0.01 v 0 0 h -0.01 v 0 h -0.01 v 0.01 h -0.01 v 0 h -0.01 v 0 h -0.01 -0.01 v 0 c -0.23,0 -0.96,-0.08 -1.22,-0.1 -0.08,-0.01 -0.19,-0.02 -0.19,-0.2 0,-0.12 0.09,-0.12 0.24,-0.12 0.48,0 0.5,-0.07 0.5,-0.17 l -0.03,-0.2 -1.44,-5.72 c -0.04,-0.14 -0.04,-0.16 -0.04,-0.22 0,-0.23 0.2,-0.27 0.29,-0.27 0.15,0 0.31,0.11 0.36,0.25 l 0.19,0.76 0.22,0.89 c 0.06,0.22 0.12,0.44 0.17,0.67 0.02,0.06 0.1,0.39 0.11,0.45 0.03,0.08 0.34,0.64 0.68,0.91 0.22,0.16 0.53,0.35 0.96,0.35 0.43,0 0.54,-0.34 0.54,-0.7 0,-0.54 -0.38,-1.62 -0.62,-2.22 -0.08,-0.23 -0.13,-0.35 -0.13,-0.55 0,-0.47 0.35,-0.81 0.82,-0.81 0.93,0 1.3,1.45 1.3,1.53 0,0.1 -0.09,0.1 -0.12,0.1 -0.1,0 -0.1,-0.04 -0.15,-0.18 -0.15,-0.53 -0.47,-1.24 -1.01,-1.24 -0.17,0 -0.24,0.1 -0.24,0.33 0,0.25 0.09,0.49 0.18,0.71 0.15,0.42 0.6,1.61 0.6,2.18 0,0.65 -0.39,1.07 -1.14,1.07 -0.63,0 -1.11,-0.31 -1.48,-0.77 z"
         style="fill:#deffff;fill-opacity:1;stroke:#ffffff;stroke-width:0;stroke-opacity:1"
         id="path917" /><path
         inkscape:connector-curvature="0"
         d="m 167.16,659.72 v 0.07 0.08 0.08 l -0.01,0.08 v 0.17 l -0.02,0.17 -0.01,0.18 -0.02,0.19 -0.03,0.2 -0.03,0.2 -0.04,0.2 -0.05,0.21 -0.05,0.21 -0.06,0.21 -0.07,0.21 -0.08,0.21 -0.05,0.11 -0.04,0.11 -0.05,0.1 -0.05,0.11 c -0.6,1.22 -1.46,1.86 -1.55,1.86 -0.07,0 -0.1,-0.03 -0.1,-0.09 0,-0.03 0,-0.05 0.19,-0.23 0.97,-0.99 1.54,-2.57 1.54,-4.64 0,-1.7 -0.37,-3.45 -1.6,-4.7 -0.13,-0.12 -0.13,-0.14 -0.13,-0.17 0,-0.06 0.03,-0.1 0.1,-0.1 0.09,0 0.99,0.68 1.58,1.94 0.51,1.09 0.63,2.19 0.63,3.03 z"
         style="fill:#deffff;fill-opacity:1;stroke:#ffffff;stroke-width:0;stroke-opacity:1"
         id="path919" /></g>  </g>
</svg>
